<svg width="56" height="68" viewBox="0 0 56 68" fill="none" xmlns="http://www.w3.org/2000/svg">
<path d="M46.6329 38.1166C44.7624 28.7027 53.6977 23.1817 53.6977 23.1817C53.6977 23.1817 50.2164 18.145 44.3656 16.8493C38.5177 15.5507 35.5909 17.1731 32.6697 18.39C29.7458 19.6098 28.2868 19.6098 28.2868 19.6098C24.0672 19.6098 20.9827 15.1422 12.9433 17.1761C7.40478 18.5738 1.5743 24.9675 0.520864 32.5984C-0.53257 40.2322 1.74069 49.9729 6.12367 57.5221C10.5066 65.0771 14.9715 67.9164 18.1404 67.9981C21.3095 68.0769 24.4728 65.7278 28.2868 65.1559C32.1037 64.5897 34.4527 66.5391 38.1967 67.5926C41.9259 68.6432 43.2333 67.6685 47.5288 64.0149C51.8358 60.3614 55.7345 49.8825 55.7345 49.8825C55.7345 49.8825 48.5034 47.5362 46.6329 38.1166Z" fill="black"/>
<path d="M38.3512 10.759C42.4949 6.53665 41.0913 0 41.0913 0C41.0913 0 35.2726 1.02137 31.374 5.07751C27.4783 9.13662 28.1231 15.5477 28.1231 15.5477C28.1231 15.5477 34.2074 14.9787 38.3512 10.759Z" fill="black"/>
</svg>
