<svg width="288" height="232" viewBox="0 0 288 232" fill="none" xmlns="http://www.w3.org/2000/svg">
<circle cx="140.93" cy="88.5078" r="70.625" stroke="#4F9CF9" stroke-width="2" stroke-dasharray="15 15"/>
<circle cx="90.2812" cy="160.133" r="70.625" stroke="#4F9CF9" stroke-width="2" stroke-dasharray="15 15"/>
<circle cx="197.719" cy="160.133" r="70.625" stroke="#4F9CF9" stroke-width="2" stroke-dasharray="15 15"/>
<circle cx="212.044" cy="90.0428" r="17.9062" fill="white"/>
<g clip-path="url(#clip0_5_47841)">
<path d="M209.166 90.6726C207.926 90.6726 206.918 91.6811 206.918 92.9207V98.5387C206.918 99.7783 207.926 100.787 209.166 100.787C210.406 100.787 211.414 99.7784 211.414 98.5387V92.9207C211.414 91.6811 210.406 90.6726 209.166 90.6726Z" fill="#FF4340"/>
<path d="M205.66 90.6722H203.483C202.283 90.6722 201.307 91.6486 201.307 92.8487C201.307 94.0488 202.283 95.0251 203.483 95.0251C204.683 95.0251 205.66 94.0488 205.66 92.8487V90.6722Z" fill="#FF4340"/>
<path d="M201.301 87.1652C201.301 88.4049 202.309 89.4134 203.549 89.4134H209.167C210.407 89.4134 211.415 88.4049 211.415 87.1652C211.415 85.9256 210.407 84.9171 209.167 84.9171H203.549C202.309 84.9171 201.301 85.9256 201.301 87.1652V87.1652Z" fill="#36C6FF"/>
<path d="M209.239 83.6577H211.416V81.4813C211.416 80.2811 210.439 79.3048 209.239 79.3048C208.039 79.3048 207.063 80.2812 207.063 81.4813C207.063 82.6813 208.039 83.6577 209.239 83.6577Z" fill="#36C6FF"/>
<path d="M214.922 89.4133C216.162 89.4133 217.17 88.4048 217.17 87.1652V81.5472C217.17 80.3076 216.162 79.2991 214.922 79.2991C213.682 79.2991 212.674 80.3076 212.674 81.5472V87.1651C212.674 88.4048 213.682 89.4133 214.922 89.4133Z" fill="#0DC46E"/>
<path d="M218.43 89.4137H220.606C221.806 89.4137 222.783 88.4373 222.783 87.2372C222.783 86.0371 221.806 85.0608 220.606 85.0608C219.406 85.0608 218.43 86.0372 218.43 87.2372V89.4137Z" fill="#0DC46E"/>
<path d="M222.788 92.9202C222.788 91.6806 221.78 90.6721 220.54 90.6721H214.922C213.682 90.6721 212.674 91.6806 212.674 92.9202C212.674 94.1599 213.682 95.1684 214.922 95.1684H220.54C221.78 95.1684 222.788 94.1599 222.788 92.9202Z" fill="#FDCB02"/>
<path d="M214.85 96.4276H212.674V98.6041C212.674 99.8042 213.65 100.781 214.85 100.781C216.05 100.781 217.027 99.8041 217.027 98.6041C217.027 97.404 216.05 96.4276 214.85 96.4276Z" fill="#FDCB02"/>
</g>
<circle cx="18.6562" cy="154.505" r="17.9062" fill="white"/>
<g clip-path="url(#clip1_5_47841)">
<path d="M28.729 148.463H19.3282C18.9576 148.463 18.6567 148.764 18.6567 149.134C18.6567 149.505 18.9576 149.806 19.3282 149.806H26.7723L22.6467 153.014L19.6881 151.133L18.9683 152.266L22.3257 154.401C22.4345 154.471 22.5607 154.506 22.6856 154.506C22.8307 154.506 22.9771 154.459 23.0979 154.365L28.0575 150.507V159.207H19.3282C18.9576 159.207 18.6567 159.507 18.6567 159.878C18.6567 160.249 18.9576 160.55 19.3282 160.55H28.729C29.0997 160.55 29.4005 160.249 29.4005 159.878V149.134C29.4005 148.764 29.0997 148.463 28.729 148.463Z" fill="#1976D2"/>
<path d="M19.7562 144.588C19.6031 144.46 19.3977 144.405 19.2043 144.446L8.46053 146.46C8.14225 146.519 7.9126 146.796 7.9126 147.119V161.892C7.9126 162.214 8.14225 162.492 8.46053 162.552L19.2043 164.566C19.2446 164.574 19.2862 164.578 19.3278 164.578C19.4836 164.578 19.6354 164.524 19.7562 164.424C19.9107 164.296 19.9993 164.105 19.9993 163.907V145.105C19.9993 144.905 19.9107 144.716 19.7562 144.588Z" fill="#2196F3"/>
<path d="M13.9556 159.206C12.105 159.206 10.5981 157.399 10.5981 155.177C10.5981 152.956 12.105 151.148 13.9556 151.148C15.8062 151.148 17.313 152.956 17.313 155.177C17.313 157.399 15.8062 159.206 13.9556 159.206ZM13.9556 152.491C12.8449 152.491 11.9411 153.696 11.9411 155.177C11.9411 156.659 12.8449 157.863 13.9556 157.863C15.0662 157.863 15.97 156.659 15.97 155.177C15.97 153.696 15.0662 152.491 13.9556 152.491Z" fill="#FAFAFA"/>
</g>
<circle cx="269.344" cy="154.505" r="17.9062" fill="white"/>
<g clip-path="url(#clip2_5_47841)">
<path d="M269.325 150.55L264.865 158.285H264.853L267.435 161.435L261.64 163.866C261.527 163.803 261.439 163.715 261.388 163.627L258.667 158.588C258.528 158.31 258.642 158.096 258.68 157.97L265.974 145.373C266.024 145.297 266.1 145.221 266.201 145.158H266.213L269.955 146.317L269.325 150.55Z" fill="#59C36A"/>
<path d="M280.088 158.285L275.036 161.435L273.839 158.285L269.325 150.55L266.213 145.158C266.301 145.095 266.415 145.057 266.516 145.057H272.176C272.302 145.095 272.554 145.083 272.718 145.372L280.012 157.97C280.063 158.058 280.088 158.172 280.088 158.285Z" fill="#FFDA2D"/>
<path d="M272.718 145.373C272.554 145.083 272.302 145.096 272.176 145.058H269.325V150.551L273.839 158.286L275.036 161.435L280.087 158.286C280.087 158.172 280.062 158.059 280.012 157.971L272.718 145.373Z" fill="#FDBF00"/>
<path d="M280.089 158.285C280.089 158.399 280.063 158.512 280.026 158.588L277.304 163.627C277.204 163.791 276.964 163.954 276.75 163.954H261.943C261.843 163.954 261.729 163.917 261.641 163.866L264.854 158.285H280.089Z" fill="#4086F4"/>
<path d="M269.325 163.954H276.749C276.963 163.954 277.203 163.79 277.303 163.626L280.024 158.587C280.062 158.512 280.087 158.398 280.087 158.285H269.325V163.954H269.325Z" fill="#4175DF"/>
</g>
<circle cx="69.3049" cy="90.0426" r="17.9062" fill="white"/>
<g clip-path="url(#clip3_5_47841)">
<path d="M62.782 95.3762V93.6495L65.6982 95.3378L69.305 91.9612V99.6353L62.782 95.3762Z" fill="#0093EB"/>
<path d="M59.2898 90.8101L63.0885 87.3567L69.3045 91.1938L65.6977 94.5704L59.2898 90.8101Z" fill="#0093EB"/>
<path d="M63.089 87.3566L58.5613 83.9033L65.0843 80.45L69.6887 83.5196L63.089 87.3566Z" fill="#0093EB"/>
<path d="M75.8284 95.4145L69.3054 99.6353V91.9612L73.0274 95.1843L75.8284 93.4193V95.4145Z" fill="#0093EB"/>
<path d="M73.0274 94.4166L69.3054 91.1934L75.5598 87.2029L79.3201 90.426L73.0274 94.4166Z" fill="#0093EB"/>
<path d="M75.5609 87.2032L69.6902 83.5196L74.2946 80.45L80.0502 83.9033L75.5609 87.2032Z" fill="#0093EB"/>
</g>
<circle cx="144" cy="205.154" r="17.9062" fill="white"/>
<g clip-path="url(#clip4_5_47841)">
<path d="M152.83 200.79H135.204C134.856 200.79 134.574 200.508 134.574 200.16V196.299C134.574 195.258 135.422 194.411 136.463 194.411H151.571C152.613 194.411 153.46 195.258 153.46 196.299V200.16C153.46 200.508 153.178 200.79 152.83 200.79Z" fill="#E3E7EA"/>
<path d="M151.572 194.411H144.018V200.79H152.831C153.179 200.79 153.461 200.508 153.461 200.16V196.299C153.461 195.258 152.613 194.411 151.572 194.411Z" fill="#BABAC0"/>
<path d="M134.55 207.715C134.55 207.714 134.55 207.713 134.55 207.713L133.298 201.747C133.21 201.18 133.361 200.614 133.714 200.198C134.079 199.77 134.607 199.531 135.161 199.531H152.838C153.392 199.531 153.921 199.77 154.286 200.198C154.639 200.614 154.79 201.18 154.702 201.722L153.449 207.716L154.702 213.683C154.79 214.249 154.639 214.816 154.286 215.231C153.921 215.659 153.392 215.898 152.838 215.898H135.161C134.607 215.898 134.079 215.659 133.714 215.231C133.361 214.816 133.21 214.249 133.298 213.708C133.298 213.708 134.528 207.819 134.55 207.715Z" fill="#4086F4"/>
<path d="M134.55 207.713C134.55 207.713 134.55 207.714 134.55 207.715H153.45L154.702 201.722C154.79 201.18 154.639 200.614 154.286 200.198C153.921 199.77 153.392 199.531 152.838 199.531H135.161C134.607 199.531 134.079 199.77 133.714 200.198C133.361 200.614 133.21 201.18 133.298 201.747L134.55 207.713Z" fill="#4175DF"/>
<path d="M137.704 198.188C138.051 198.188 138.333 197.906 138.333 197.558C138.333 197.211 138.051 196.929 137.704 196.929C137.356 196.929 137.074 197.211 137.074 197.558C137.074 197.906 137.356 198.188 137.704 198.188Z" fill="#FFF5F5"/>
<path d="M150.296 198.188C150.643 198.188 150.925 197.906 150.925 197.558C150.925 197.211 150.643 196.929 150.296 196.929C149.948 196.929 149.666 197.211 149.666 197.558C149.666 197.906 149.948 198.188 150.296 198.188Z" fill="#E3E7EA"/>
<path d="M141.481 212.121C140.416 212.121 139.461 211.446 139.107 210.442C138.99 210.114 139.162 209.755 139.49 209.639C139.817 209.522 140.178 209.695 140.293 210.023C140.471 210.524 140.948 210.862 141.481 210.862C142.175 210.862 142.74 210.297 142.74 209.603C142.74 208.909 142.175 208.344 141.481 208.344H140.698C140.351 208.344 140.069 208.062 140.069 207.714C140.069 207.366 140.351 207.085 140.698 207.085H141.481C142.175 207.085 142.74 206.52 142.74 205.826C142.74 205.132 142.175 204.567 141.481 204.567C140.948 204.567 140.471 204.904 140.293 205.406C140.178 205.734 139.816 205.906 139.49 205.789C139.162 205.674 138.99 205.314 139.107 204.987C139.461 203.982 140.416 203.308 141.481 203.308C142.87 203.308 143.999 204.437 143.999 205.826C143.999 206.577 143.668 207.253 143.144 207.714C143.668 208.176 143.999 208.852 143.999 209.603C143.999 210.992 142.87 212.121 141.481 212.121Z" fill="#FFF5F5"/>
<path d="M139.49 205.789C139.816 205.906 140.178 205.734 140.293 205.406C140.471 204.904 140.949 204.567 141.481 204.567C142.175 204.567 142.74 205.132 142.74 205.826C142.74 206.52 142.175 207.085 141.481 207.085H140.698C140.351 207.085 140.069 207.366 140.069 207.714H143.145C143.668 207.252 143.999 206.577 143.999 205.826C143.999 204.437 142.87 203.308 141.481 203.308C140.416 203.308 139.461 203.982 139.107 204.987C138.99 205.314 139.162 205.674 139.49 205.789Z" fill="#E3E7EA"/>
<path d="M147.776 212.121C147.428 212.121 147.147 211.839 147.147 211.491V205.113L146.237 205.72C145.947 205.912 145.556 205.834 145.364 205.545C145.171 205.256 145.249 204.865 145.538 204.672L147.427 203.413C147.62 203.285 147.869 203.272 148.073 203.382C148.278 203.491 148.406 203.705 148.406 203.937V211.491C148.406 211.839 148.124 212.121 147.776 212.121Z" fill="#FFF5F5"/>
<path d="M146.237 205.72L147.147 205.113V207.714H148.406V203.937C148.406 203.705 148.278 203.491 148.073 203.382C147.869 203.272 147.62 203.285 147.427 203.413L145.538 204.672C145.249 204.865 145.171 205.256 145.364 205.545C145.556 205.834 145.947 205.912 146.237 205.72Z" fill="#E3E7EA"/>
</g>
<circle cx="142.466" cy="17.9062" r="17.9062" fill="white"/>
<g clip-path="url(#clip5_5_47841)">
<path d="M150.524 9.84851H134.408V25.9641H150.524V9.84851Z" fill="#ECEFF1"/>
<path d="M142.467 19.6009L150.524 25.9639V13.4017L142.467 19.6009Z" fill="#CFD8DC"/>
<path d="M151.195 9.84839H150.524L142.466 16.2114L134.408 9.84839H133.737C132.625 9.84839 131.722 10.7509 131.722 11.8628V23.9496C131.722 25.0615 132.625 25.964 133.737 25.964H134.408V13.4019L142.466 19.5997L150.524 13.4005V25.964H151.195C152.307 25.964 153.21 25.0615 153.21 23.9496V11.8628C153.21 10.7509 152.307 9.84839 151.195 9.84839Z" fill="#F44336"/>
</g>
<circle cx="143.58" cy="137.444" r="25.5804" fill="white"/>
<path d="M130 128.547V133.355C130 134.819 131.829 135.6 132.946 134.575L138.28 129.768C139.449 128.718 138.687 126.863 137.087 126.863H131.753C130.787 126.863 130 127.62 130 128.547Z" fill="#5986EF"/>
<path d="M155.247 126.863H149.913C148.339 126.863 147.551 128.718 148.72 129.768L154.054 134.575C155.171 135.576 157 134.819 157 133.355V128.547C157 127.62 156.213 126.863 155.247 126.863Z" fill="#5986EF"/>
<path d="M144.706 138.602L154.054 147.047C155.171 148.047 157 147.291 157 145.826V140.97C157 140.506 156.797 140.067 156.441 139.749L144.706 129.133C144.021 128.523 142.979 128.523 142.294 129.133L130.559 139.749C130.203 140.067 130 140.506 130 140.97V145.826C130 147.291 131.829 148.072 132.946 147.047L142.294 138.602C142.979 137.992 144.021 137.992 144.706 138.602Z" fill="#5986EF"/>
<defs>
<clipPath id="clip0_5_47841">
<rect width="21.4875" height="21.4875" fill="white" transform="translate(201.301 79.2991)"/>
</clipPath>
<clipPath id="clip1_5_47841">
<rect width="21.4875" height="21.4875" fill="white" transform="translate(7.9126 143.762)"/>
</clipPath>
<clipPath id="clip2_5_47841">
<rect width="21.4875" height="21.4875" fill="white" transform="translate(258.6 143.762)"/>
</clipPath>
<clipPath id="clip3_5_47841">
<rect width="21.4875" height="21.4875" fill="white" transform="translate(58.5613 79.2991)"/>
</clipPath>
<clipPath id="clip4_5_47841">
<rect width="21.4875" height="21.4875" fill="white" transform="translate(133.256 194.411)"/>
</clipPath>
<clipPath id="clip5_5_47841">
<rect width="21.4875" height="21.4875" fill="white" transform="translate(131.722 7.16248)"/>
</clipPath>
</defs>
</svg>
