<svg width="104" height="15" viewBox="0 0 104 15" fill="none" xmlns="http://www.w3.org/2000/svg">
<path d="M8 0L9.68386 5.18237H15.1329L10.7245 8.38525L12.4084 13.5676L8 10.3647L3.59161 13.5676L5.27547 8.38525L0.867076 5.18237H6.31614L8 0Z" fill="#FFE492"/>
<path d="M30 0L31.6839 5.18237H37.1329L32.7245 8.38525L34.4084 13.5676L30 10.3647L25.5916 13.5676L27.2755 8.38525L22.8671 5.18237H28.3161L30 0Z" fill="#FFE492"/>
<path d="M52 0L53.6839 5.18237H59.1329L54.7245 8.38525L56.4084 13.5676L52 10.3647L47.5916 13.5676L49.2755 8.38525L44.8671 5.18237H50.3161L52 0Z" fill="#FFE492"/>
<path d="M74 0L75.6839 5.18237H81.1329L76.7245 8.38525L78.4084 13.5676L74 10.3647L69.5916 13.5676L71.2755 8.38525L66.8671 5.18237H72.3161L74 0Z" fill="#FFE492"/>
<path d="M96 0L97.6839 5.18237H103.133L98.7245 8.38525L100.408 13.5676L96 10.3647L91.5916 13.5676L93.2755 8.38525L88.8671 5.18237H94.3161L96 0Z" fill="#FFE492"/>
</svg>
