<svg width="320" height="216" viewBox="0 0 320 216" fill="none" xmlns="http://www.w3.org/2000/svg">
<path d="M287.918 155.464C287.918 84.817 230.647 27.5466 160.001 27.5466C89.3539 27.5466 32.0835 84.817 32.0835 155.464" stroke="#A7CEFC" stroke-width="2" stroke-dasharray="15 15"/>
<line x1="31.3889" y1="153.964" x2="287.916" y2="153.964" stroke="#A7CEFC" stroke-width="3" stroke-dasharray="15 15"/>
<line x1="84.2604" y1="51.9782" x2="137.993" y2="126.856" stroke="#A7CEFC" stroke-width="3" stroke-dasharray="15 15"/>
<line x1="246.618" y1="61.1038" x2="193.415" y2="128.315" stroke="#A7CEFC" stroke-width="3" stroke-dasharray="15 15"/>
<rect x="137.234" y="127.844" width="55.2387" height="55.2387" rx="8.5" stroke="#A7CEFC" stroke-width="3" stroke-dasharray="15 15"/>
<g filter="url(#filter0_d_5_47614)">
<rect x="147.52" y="138.131" width="34.6659" height="34.6659" rx="10" fill="white"/>
</g>
<path d="M155 150.788V154.171C155 155.201 156.287 155.751 157.073 155.03L160.827 151.646C161.649 150.908 161.113 149.603 159.987 149.603H156.233C155.554 149.603 155 150.135 155 150.788Z" fill="#5986EF"/>
<path d="M172.767 149.603H169.013C167.905 149.603 167.351 150.908 168.173 151.646L171.927 155.03C172.713 155.734 174 155.201 174 154.171V150.788C174 150.135 173.446 149.603 172.767 149.603Z" fill="#5986EF"/>
<path d="M165.349 157.863L171.927 163.806C172.713 164.51 174 163.977 174 162.947V159.529C174 159.203 173.857 158.894 173.607 158.671L165.349 151.2C164.866 150.77 164.134 150.77 163.651 151.2L155.393 158.671C155.143 158.894 155 159.203 155 159.529V162.947C155 163.977 156.287 164.527 157.073 163.806L163.651 157.863C164.134 157.434 164.866 157.434 165.349 157.863Z" fill="#5986EF"/>
<g filter="url(#filter1_d_5_47614)">
<rect x="14.75" y="138.131" width="34.6659" height="34.6659" rx="10" fill="white"/>
</g>
<path d="M31.3049 156.798C31.1385 156.798 30.9721 156.735 30.8454 156.608C30.5916 156.354 30.5916 155.943 30.8454 155.689L35.0576 151.476C35.3111 151.223 35.7232 151.223 35.9767 151.476C36.2305 151.73 36.2305 152.142 35.9767 152.396L31.7645 156.608C31.6377 156.735 31.4713 156.798 31.3049 156.798Z" fill="#FFE492"/>
<path d="M31.3054 156.798C31.139 156.798 30.9729 156.735 30.8458 156.608L28.7223 154.485C28.4685 154.231 28.4685 153.82 28.7223 153.566C28.9758 153.312 29.3876 153.312 29.6414 153.566L31.7649 155.689C32.0187 155.943 32.0187 156.354 31.7649 156.608C31.6382 156.735 31.4718 156.798 31.3054 156.798Z" fill="#FFE492"/>
<path d="M32.0822 163.567C32.0146 163.567 31.946 163.556 31.8784 163.534C27.7237 162.163 24.9324 158.303 24.9324 153.928C24.9324 153.569 25.2236 153.278 25.5824 153.278C25.9411 153.278 26.2323 153.569 26.2323 153.928C26.2323 157.741 28.6649 161.105 32.2856 162.299C32.6266 162.412 32.8118 162.779 32.6994 163.12C32.6093 163.394 32.3552 163.567 32.0822 163.567Z" fill="#FFE492"/>
<path d="M25.5824 154.578C25.2236 154.578 24.9324 154.287 24.9324 153.928V149.33C24.9324 148.971 25.2236 148.68 25.5824 148.68C25.9411 148.68 26.2323 148.971 26.2323 149.33V153.928C26.2323 154.287 25.9411 154.578 25.5824 154.578Z" fill="#FFE492"/>
<path d="M25.5818 149.979C25.2627 149.979 24.9841 149.744 24.9386 149.419C24.8892 149.063 25.1372 148.735 25.4931 148.686C27.6887 148.38 29.808 147.724 31.7924 146.735C32.1138 146.575 32.5041 146.706 32.664 147.027C32.8243 147.349 32.6933 147.739 32.3722 147.899C30.2614 148.95 28.0072 149.648 25.6718 149.973C25.6416 149.977 25.6114 149.979 25.5818 149.979Z" fill="#FFE492"/>
<path d="M32.0824 163.567C31.8097 163.567 31.5553 163.394 31.4653 163.12C31.3528 162.779 31.5381 162.412 31.879 162.299C35.4997 161.105 37.9323 157.741 37.9323 153.928C37.9323 153.569 38.2235 153.278 38.5823 153.278C38.9411 153.278 39.2323 153.569 39.2323 153.928C39.2323 158.303 36.4409 162.163 32.2859 163.534C32.2183 163.556 32.15 163.567 32.0824 163.567Z" fill="#FFE492"/>
<path d="M38.5824 154.578C38.2236 154.578 37.9324 154.287 37.9324 153.928V149.33C37.9324 148.971 38.2236 148.68 38.5824 148.68C38.9411 148.68 39.2323 148.971 39.2323 149.33V153.928C39.2323 154.287 38.9411 154.578 38.5824 154.578Z" fill="#FFE492"/>
<path d="M38.5833 149.979C38.5534 149.979 38.5232 149.977 38.493 149.973C36.1576 149.648 33.9034 148.95 31.7926 147.899C31.4715 147.739 31.3405 147.349 31.5008 147.027C31.6607 146.706 32.051 146.575 32.3724 146.735C34.3568 147.724 36.4761 148.38 38.6717 148.686C39.0273 148.735 39.2756 149.064 39.2262 149.419C39.1813 149.744 38.9028 149.979 38.5833 149.979Z" fill="#FFE492"/>
<g filter="url(#filter2_d_5_47614)">
<rect x="270.584" y="138.131" width="34.6659" height="34.6659" rx="10" fill="white"/>
</g>
<g clip-path="url(#clip0_5_47614)">
<path d="M293.767 152.701H292.303V149.361C292.303 146.991 290.335 145.064 287.916 145.064C285.497 145.064 283.529 146.991 283.529 149.361V152.701H282.068C280.724 152.701 279.63 153.794 279.63 155.138V163.426C279.63 164.77 280.724 165.863 282.068 165.863H293.767C295.111 165.863 296.205 164.77 296.205 163.426V155.138C296.205 153.794 295.111 152.701 293.767 152.701ZM285.153 149.361C285.153 147.887 286.393 146.689 287.916 146.689C289.439 146.689 290.678 147.887 290.678 149.361V152.701H285.153V149.361ZM294.58 163.426C294.58 163.874 294.215 164.238 293.767 164.238H282.068C281.62 164.238 281.255 163.874 281.255 163.426V155.138C281.255 154.69 281.62 154.326 282.068 154.326H293.767C294.215 154.326 294.58 154.69 294.58 155.138V163.426Z" fill="#4F9CF9"/>
<path d="M287.916 156.682C287.086 156.682 286.413 157.355 286.413 158.185C286.413 158.715 286.688 159.181 287.102 159.448V161.232C287.102 161.68 287.466 162.044 287.915 162.044C288.364 162.044 288.727 161.68 288.727 161.232V159.45C289.144 159.183 289.42 158.716 289.42 158.185C289.42 157.355 288.747 156.682 287.916 156.682Z" fill="#4F9CF9"/>
</g>
<g filter="url(#filter3_d_5_47614)">
<rect x="227.945" y="35.5196" width="34.6659" height="34.6659" rx="10" fill="white"/>
</g>
<g clip-path="url(#clip1_5_47614)">
<path d="M241.991 42.4529C237.799 42.4529 234.878 43.9086 234.878 45.2152C234.878 46.5217 237.799 47.9775 241.991 47.9775C246.184 47.9775 249.105 46.5217 249.105 45.2152C249.105 43.9087 246.184 42.4529 241.991 42.4529Z" fill="#FFE492"/>
<path d="M234.878 57.9065V60.4901C234.878 61.7966 237.799 63.2524 241.991 63.2524C243.87 63.2524 245.644 62.9565 246.985 62.419C247.859 62.0688 248.506 61.6344 248.843 61.183C248.209 60.6867 247.476 59.973 246.838 58.9884C245.433 59.4381 243.773 59.6741 241.992 59.6741C239.75 59.6741 237.653 59.288 236.087 58.5867C235.63 58.3822 235.226 58.1542 234.878 57.9065V57.9065Z" fill="#FFE492"/>
<path d="M234.878 52.8265L234.878 55.3749C234.878 56.6814 237.799 58.1371 241.991 58.1371C243.478 58.1371 244.905 57.9507 246.1 57.6057C245.666 56.6038 245.386 55.4978 245.263 54.3009C244.24 54.4932 243.126 54.5935 241.991 54.5935C239.735 54.5935 237.628 54.203 236.059 53.4938C235.614 53.2924 235.219 53.0689 234.878 52.8265Z" fill="#FFE492"/>
<path d="M234.878 47.7444V50.2945C234.878 51.601 237.799 53.0568 241.991 53.0568C243.113 53.0568 244.206 52.9511 245.19 52.7492C245.191 52.5077 245.263 51.8792 245.845 51.7195C246.762 51.4678 247.404 50.8635 247.46 50.0347C247.484 49.6934 247.911 49.2153 248.229 49.22H249.105V47.7444C248.764 47.9867 248.37 48.2103 247.924 48.4119C246.353 49.1228 244.246 49.5144 241.992 49.5144C239.737 49.5144 237.63 49.1228 236.059 48.4119C235.613 48.2103 235.219 47.9867 234.878 47.7444V47.7444Z" fill="#FFE492"/>
<path d="M253.499 50.7571H248.914C248.658 51.823 247.838 52.6974 246.729 53.0787C246.816 58.195 249.757 60.146 251.053 60.7576C251.127 60.7926 251.215 60.7888 251.288 60.7477C252.59 60.0142 255.541 57.831 255.678 53.0769C254.573 52.6947 253.755 51.8214 253.499 50.7571ZM250.932 57.4199C250.621 57.7399 250.085 57.7224 249.796 57.3827L248.335 55.6683L249.505 54.6715L250.418 55.7433L252.966 53.1224L254.069 54.1937L250.932 57.4199Z" fill="#FFE492"/>
</g>
<g filter="url(#filter4_d_5_47614)">
<rect x="65.7095" y="35.5196" width="34.6659" height="34.6659" rx="10" fill="white"/>
</g>
<g clip-path="url(#clip2_5_47614)">
<path d="M90.7876 44.4134C88.1737 41.7995 83.9206 41.7996 81.3068 44.4134C79.5215 46.1987 78.9016 48.8302 79.6743 51.2172L72.127 58.7645C72.0127 58.8788 71.9485 59.0338 71.9485 59.1955V62.6431C71.9485 62.9797 72.2214 63.2525 72.5579 63.2525H76.0055C76.1672 63.2525 76.3222 63.1883 76.4365 63.074L77.2986 62.2119C77.4302 62.0802 77.4945 61.8956 77.473 61.7106L77.3654 60.785L78.6485 60.6641C78.9398 60.6366 79.1706 60.4059 79.198 60.1146L79.319 58.8314L80.2447 58.9389C80.4175 58.9591 80.5904 58.9044 80.7204 58.7887C80.8502 58.6731 80.9245 58.5075 80.9245 58.3335V57.1986H82.0388C82.1992 57.1986 82.3532 57.1353 82.4673 57.0226L83.9814 55.5259C86.369 56.2998 89.0019 55.68 90.7877 53.8942C93.4014 51.2804 93.4014 47.0272 90.7876 44.4134ZM89.9257 53.0323C88.3875 54.5706 86.08 55.0507 84.0473 54.2557C83.823 54.168 83.5681 54.2206 83.3969 54.3898L81.7884 55.9797H80.315C79.9784 55.9797 79.7056 56.2526 79.7056 56.5891V57.6492L78.8411 57.5487C78.6782 57.5298 78.5147 57.5772 78.3872 57.6804C78.2598 57.7835 78.1793 57.9336 78.1639 58.0968L78.0318 59.4979L76.6308 59.6299C76.4676 59.6453 76.3175 59.7258 76.2143 59.8533C76.1112 59.9806 76.0637 60.1443 76.0826 60.3071L76.2281 61.5585L75.7531 62.0337H73.1673V59.448L80.8086 51.8067C80.9798 51.6355 81.0334 51.3792 80.9453 51.1538C80.1502 49.121 80.6304 46.8137 82.1686 45.2753C84.3073 43.1367 87.7871 43.1367 89.9257 45.2753C92.0643 47.4139 92.0643 50.8937 89.9257 53.0323Z" fill="#4F9CF9"/>
<path d="M89.0649 46.137C88.352 45.424 87.1921 45.4241 86.4792 46.137C85.7664 46.8498 85.7664 48.0098 86.4792 48.7226C87.1921 49.4355 88.352 49.4356 89.0649 48.7226C89.7778 48.0098 89.7778 46.8498 89.0649 46.137ZM88.203 47.8608C87.9654 48.0984 87.5788 48.0984 87.3412 47.8608C87.1035 47.6231 87.1035 47.2365 87.3412 46.9989C87.5794 46.7607 87.9648 46.7607 88.203 46.9989C88.4413 47.2371 88.4412 47.6225 88.203 47.8608Z" fill="#4F9CF9"/>
</g>
<circle cx="161.039" cy="27.5465" r="5.54654" fill="#A7CEFC"/>
<circle cx="119.094" cy="103.118" r="5.54654" fill="#A7CEFC"/>
<circle cx="237.998" cy="155.464" r="5.54654" fill="#A7CEFC"/>
<defs>
<filter id="filter0_d_5_47614" x="109.52" y="104.131" width="110.666" height="110.666" filterUnits="userSpaceOnUse" color-interpolation-filters="sRGB">
<feFlood flood-opacity="0" result="BackgroundImageFix"/>
<feColorMatrix in="SourceAlpha" type="matrix" values="0 0 0 0 0 0 0 0 0 0 0 0 0 0 0 0 0 0 127 0" result="hardAlpha"/>
<feMorphology radius="2" operator="erode" in="SourceAlpha" result="effect1_dropShadow_5_47614"/>
<feOffset dy="4"/>
<feGaussianBlur stdDeviation="20"/>
<feComposite in2="hardAlpha" operator="out"/>
<feColorMatrix type="matrix" values="0 0 0 0 0 0 0 0 0 0 0 0 0 0 0 0 0 0 0.2 0"/>
<feBlend mode="normal" in2="BackgroundImageFix" result="effect1_dropShadow_5_47614"/>
<feBlend mode="normal" in="SourceGraphic" in2="effect1_dropShadow_5_47614" result="shape"/>
</filter>
<filter id="filter1_d_5_47614" x="-24.25" y="103.131" width="112.666" height="112.666" filterUnits="userSpaceOnUse" color-interpolation-filters="sRGB">
<feFlood flood-opacity="0" result="BackgroundImageFix"/>
<feColorMatrix in="SourceAlpha" type="matrix" values="0 0 0 0 0 0 0 0 0 0 0 0 0 0 0 0 0 0 127 0" result="hardAlpha"/>
<feMorphology radius="11" operator="erode" in="SourceAlpha" result="effect1_dropShadow_5_47614"/>
<feOffset dy="4"/>
<feGaussianBlur stdDeviation="25"/>
<feComposite in2="hardAlpha" operator="out"/>
<feColorMatrix type="matrix" values="0 0 0 0 0 0 0 0 0 0 0 0 0 0 0 0 0 0 0.2 0"/>
<feBlend mode="normal" in2="BackgroundImageFix" result="effect1_dropShadow_5_47614"/>
<feBlend mode="normal" in="SourceGraphic" in2="effect1_dropShadow_5_47614" result="shape"/>
</filter>
<filter id="filter2_d_5_47614" x="231.584" y="103.131" width="112.666" height="112.666" filterUnits="userSpaceOnUse" color-interpolation-filters="sRGB">
<feFlood flood-opacity="0" result="BackgroundImageFix"/>
<feColorMatrix in="SourceAlpha" type="matrix" values="0 0 0 0 0 0 0 0 0 0 0 0 0 0 0 0 0 0 127 0" result="hardAlpha"/>
<feMorphology radius="11" operator="erode" in="SourceAlpha" result="effect1_dropShadow_5_47614"/>
<feOffset dy="4"/>
<feGaussianBlur stdDeviation="25"/>
<feComposite in2="hardAlpha" operator="out"/>
<feColorMatrix type="matrix" values="0 0 0 0 0 0 0 0 0 0 0 0 0 0 0 0 0 0 0.2 0"/>
<feBlend mode="normal" in2="BackgroundImageFix" result="effect1_dropShadow_5_47614"/>
<feBlend mode="normal" in="SourceGraphic" in2="effect1_dropShadow_5_47614" result="shape"/>
</filter>
<filter id="filter3_d_5_47614" x="188.945" y="0.519577" width="112.666" height="112.666" filterUnits="userSpaceOnUse" color-interpolation-filters="sRGB">
<feFlood flood-opacity="0" result="BackgroundImageFix"/>
<feColorMatrix in="SourceAlpha" type="matrix" values="0 0 0 0 0 0 0 0 0 0 0 0 0 0 0 0 0 0 127 0" result="hardAlpha"/>
<feMorphology radius="11" operator="erode" in="SourceAlpha" result="effect1_dropShadow_5_47614"/>
<feOffset dy="4"/>
<feGaussianBlur stdDeviation="25"/>
<feComposite in2="hardAlpha" operator="out"/>
<feColorMatrix type="matrix" values="0 0 0 0 0 0 0 0 0 0 0 0 0 0 0 0 0 0 0.2 0"/>
<feBlend mode="normal" in2="BackgroundImageFix" result="effect1_dropShadow_5_47614"/>
<feBlend mode="normal" in="SourceGraphic" in2="effect1_dropShadow_5_47614" result="shape"/>
</filter>
<filter id="filter4_d_5_47614" x="26.7095" y="0.519577" width="112.666" height="112.666" filterUnits="userSpaceOnUse" color-interpolation-filters="sRGB">
<feFlood flood-opacity="0" result="BackgroundImageFix"/>
<feColorMatrix in="SourceAlpha" type="matrix" values="0 0 0 0 0 0 0 0 0 0 0 0 0 0 0 0 0 0 127 0" result="hardAlpha"/>
<feMorphology radius="11" operator="erode" in="SourceAlpha" result="effect1_dropShadow_5_47614"/>
<feOffset dy="4"/>
<feGaussianBlur stdDeviation="25"/>
<feComposite in2="hardAlpha" operator="out"/>
<feColorMatrix type="matrix" values="0 0 0 0 0 0 0 0 0 0 0 0 0 0 0 0 0 0 0.2 0"/>
<feBlend mode="normal" in2="BackgroundImageFix" result="effect1_dropShadow_5_47614"/>
<feBlend mode="normal" in="SourceGraphic" in2="effect1_dropShadow_5_47614" result="shape"/>
</filter>
<clipPath id="clip0_5_47614">
<rect width="20.7995" height="20.7995" fill="white" transform="translate(277.517 145.064)"/>
</clipPath>
<clipPath id="clip1_5_47614">
<rect width="20.7995" height="20.7995" fill="white" transform="translate(234.878 42.4529)"/>
</clipPath>
<clipPath id="clip2_5_47614">
<rect width="20.7995" height="20.7995" fill="white" transform="translate(71.9485 42.4529)"/>
</clipPath>
</defs>
</svg>
