<svg width="140" height="47" viewBox="0 0 140 47" fill="none" xmlns="http://www.w3.org/2000/svg">
<path d="M59.948 24.2901C59.948 30.9307 54.7797 35.824 48.437 35.824C42.0943 35.824 36.926 30.9307 36.926 24.2901C36.926 17.6027 42.0943 12.7561 48.437 12.7561C54.7797 12.7561 59.948 17.6027 59.948 24.2901ZM54.9091 24.2901C54.9091 20.1403 51.9136 17.301 48.437 17.301C44.9604 17.301 41.965 20.1403 41.965 24.2901C41.965 28.3982 44.9604 31.2791 48.437 31.2791C51.9136 31.2791 54.9091 28.393 54.9091 24.2901Z" fill="#EA4335"/>
<path d="M84.7808 24.2901C84.7808 30.9307 79.6125 35.824 73.2698 35.824C66.9271 35.824 61.7588 30.9307 61.7588 24.2901C61.7588 17.6079 66.9271 12.7561 73.2698 12.7561C79.6125 12.7561 84.7808 17.6027 84.7808 24.2901ZM79.7418 24.2901C79.7418 20.1403 76.7464 17.301 73.2698 17.301C69.7932 17.301 66.7978 20.1403 66.7978 24.2901C66.7978 28.3982 69.7932 31.2791 73.2698 31.2791C76.7464 31.2791 79.7418 28.393 79.7418 24.2901Z" fill="#FBBC05"/>
<path d="M108.579 13.4529V34.16C108.579 42.6778 103.581 46.1567 97.673 46.1567C92.1115 46.1567 88.7643 42.4178 87.5019 39.3601L91.8891 37.5245C92.6703 39.4017 94.5844 41.617 97.6678 41.617C101.45 41.617 103.793 39.2717 103.793 34.8568V33.1979H103.617C102.49 34.5968 100.317 35.8188 97.5747 35.8188C91.8373 35.8188 86.5811 30.7955 86.5811 24.3317C86.5811 17.8211 91.8373 12.7561 97.5747 12.7561C100.311 12.7561 102.484 13.9781 103.617 15.3354H103.793V13.4581H108.579V13.4529ZM104.15 24.3317C104.15 20.2703 101.455 17.301 98.0248 17.301C94.5482 17.301 91.6356 20.2703 91.6356 24.3317C91.6356 28.3514 94.5482 31.2791 98.0248 31.2791C101.455 31.2791 104.15 28.3514 104.15 24.3317Z" fill="#4285F4"/>
<path d="M116.468 1.31567V35.1167H111.553V1.31567H116.468Z" fill="#34A853"/>
<path d="M135.621 28.0862L139.532 30.7071C138.27 32.5844 135.228 35.8189 129.971 35.8189C123.453 35.8189 118.584 30.7539 118.584 24.2849C118.584 17.4259 123.494 12.751 129.407 12.751C135.362 12.751 138.275 17.5143 139.227 20.0884L139.749 21.3988L124.41 27.7846C125.584 30.0987 127.41 31.2791 129.971 31.2791C132.537 31.2791 134.317 30.0103 135.621 28.0862ZM123.582 23.9365L133.836 19.6568C133.272 18.2163 131.575 17.2127 129.578 17.2127C127.017 17.2127 123.453 19.4852 123.582 23.9365Z" fill="#EA4335"/>
<path d="M18.3217 21.2896V16.3962H34.7269C34.8873 17.2491 34.97 18.2579 34.97 19.3499C34.97 23.0212 33.9715 27.561 30.7536 30.7955C27.6237 34.0716 23.6246 35.8188 18.3269 35.8188C8.50762 35.8188 0.250732 27.7794 0.250732 17.9095C0.250732 8.03957 8.50762 0.00012207 18.3269 0.00012207C23.7591 0.00012207 27.6288 2.14259 30.5363 4.93507L27.1012 8.38798C25.0162 6.42232 22.1915 4.89347 18.3217 4.89347C11.1513 4.89347 5.54321 10.7021 5.54321 17.9095C5.54321 25.1169 11.1513 30.9255 18.3217 30.9255C22.9727 30.9255 25.6215 29.0482 27.3184 27.3426C28.6946 25.9593 29.5999 23.9833 29.9569 21.2844L18.3217 21.2896Z" fill="#4285F4"/>
</svg>
