<svg width="192" height="35" viewBox="0 0 192 35" fill="none" xmlns="http://www.w3.org/2000/svg">
<g clip-path="url(#clip0_5_48191)">
<path d="M0.5 4.91749V11.6705C0.5 13.7272 3.00611 14.8241 4.53763 13.3844L11.8471 6.63144C13.4483 5.15745 12.404 2.55225 10.2112 2.55225H2.90169C1.57902 2.55225 0.5 3.61489 0.5 4.91749Z" fill="white"/>
<path d="M35.0982 2.55225H27.7887C25.6307 2.55225 24.5517 5.15745 26.1528 6.63144L33.4623 13.3844C34.9938 14.7898 37.4999 13.7272 37.4999 11.6704V4.91749C37.4999 3.61489 36.4209 2.55225 35.0982 2.55225Z" fill="white"/>
<path d="M20.6533 19.0404L33.4624 30.9009C34.9939 32.3063 37.5 31.2437 37.5 29.187V22.3654C37.5 21.7141 37.2215 21.0971 36.7342 20.6515L20.6533 5.74014C19.7135 4.88317 18.2865 4.88317 17.3467 5.74014L1.26576 20.6515C0.778457 21.0971 0.5 21.7141 0.5 22.3654V29.187C0.5 31.2437 3.00611 32.3406 4.53763 30.9009L17.3467 19.0404C18.2865 18.1834 19.7135 18.1834 20.6533 19.0404Z" fill="white"/>
</g>
<path d="M52.2031 27.1577L48.0469 11.885H52.3324L54.6989 22.1464H54.8381L57.304 11.885H61.5099L64.0156 22.0867H64.1449L66.4716 11.885H70.7472L66.6009 27.1577H62.1165L59.4915 17.5526H59.3026L56.6776 27.1577H52.2031ZM77.2425 18.3282V27.1577H73.0067V6.79408H77.1232V14.5796H77.3022C77.6469 13.6781 78.2037 12.9721 78.9727 12.4617C79.7416 11.9446 80.7061 11.6861 81.8661 11.6861C82.9267 11.6861 83.8514 11.9181 84.6403 12.3821C85.4357 12.8395 86.0522 13.4991 86.4897 14.3608C86.9338 15.216 87.1526 16.2401 87.146 17.4333V27.1577H82.9102V18.189C82.9168 17.2477 82.6781 16.5152 82.1942 15.9915C81.717 15.4678 81.0475 15.206 80.1857 15.206C79.609 15.206 79.0986 15.3286 78.6545 15.5739C78.217 15.8192 77.8723 16.1771 77.6204 16.6478C77.3751 17.1118 77.2492 17.6719 77.2425 18.3282ZM90.4794 27.1577V11.885H94.7152V27.1577H90.4794ZM92.6072 9.91624C91.9775 9.91624 91.4373 9.70743 90.9865 9.28982C90.5424 8.86557 90.3203 8.35847 90.3203 7.76851C90.3203 7.18518 90.5424 6.6847 90.9865 6.26709C91.4373 5.84285 91.9775 5.63073 92.6072 5.63073C93.237 5.63073 93.7739 5.84285 94.218 6.26709C94.6688 6.6847 94.8942 7.18518 94.8942 7.76851C94.8942 8.35847 94.6688 8.86557 94.218 9.28982C93.7739 9.70743 93.237 9.91624 92.6072 9.91624ZM106.232 11.885V15.0668H97.0344V11.885H106.232ZM99.1225 8.2259H103.358V22.4645C103.358 22.8556 103.418 23.1606 103.537 23.3793C103.657 23.5914 103.822 23.7406 104.034 23.8267C104.253 23.9129 104.505 23.956 104.79 23.956C104.989 23.956 105.188 23.9394 105.387 23.9063C105.586 23.8665 105.738 23.8367 105.844 23.8168L106.51 26.9688C106.298 27.0351 106 27.1113 105.615 27.1975C105.231 27.2903 104.764 27.3466 104.213 27.3665C103.193 27.4063 102.298 27.2704 101.529 26.9589C100.766 26.6473 100.173 26.1634 99.7489 25.5071C99.3247 24.8509 99.1159 24.0223 99.1225 23.0214V8.2259ZM115.787 27.456C114.216 27.456 112.864 27.1378 111.73 26.5015C110.604 25.8585 109.735 24.9503 109.125 23.777C108.516 22.5971 108.211 21.2017 108.211 19.591C108.211 18.0199 108.516 16.6411 109.125 15.4546C109.735 14.268 110.594 13.3433 111.701 12.6804C112.814 12.0176 114.12 11.6861 115.618 11.6861C116.626 11.6861 117.564 11.8485 118.432 12.1733C119.307 12.4915 120.069 12.9721 120.719 13.6151C121.375 14.2581 121.886 15.0668 122.25 16.0412C122.615 17.009 122.797 18.1426 122.797 19.4418V20.6052H109.901V17.9802H118.81C118.81 17.3703 118.677 16.8301 118.412 16.3594C118.147 15.8888 117.779 15.5209 117.309 15.2557C116.845 14.9839 116.304 14.8481 115.688 14.8481C115.045 14.8481 114.475 14.9972 113.978 15.2955C113.487 15.5872 113.103 15.9816 112.824 16.4787C112.546 16.9693 112.403 17.5161 112.397 18.1194V20.6151C112.397 21.3708 112.536 22.0237 112.814 22.5739C113.099 23.1241 113.5 23.5483 114.017 23.8466C114.534 24.1449 115.148 24.2941 115.857 24.2941C116.328 24.2941 116.758 24.2278 117.15 24.0952C117.541 23.9626 117.875 23.7638 118.154 23.4986C118.432 23.2335 118.644 22.9087 118.79 22.5242L122.708 22.7827C122.509 23.724 122.101 24.546 121.485 25.2486C120.875 25.9446 120.086 26.4882 119.118 26.8793C118.157 27.2638 117.047 27.456 115.787 27.456ZM125.561 32.885V11.885H129.738V14.4503H129.926C130.112 14.0393 130.381 13.6217 130.732 13.1975C131.09 12.7666 131.554 12.4087 132.124 12.1236C132.701 11.832 133.417 11.6861 134.272 11.6861C135.385 11.6861 136.413 11.9778 137.354 12.5611C138.295 13.1378 139.048 14.0095 139.611 15.1762C140.175 16.3362 140.456 17.7912 140.456 19.5412C140.456 21.2448 140.181 22.6833 139.631 23.8566C139.087 25.0232 138.345 25.9082 137.404 26.5114C136.469 27.108 135.422 27.4063 134.262 27.4063C133.44 27.4063 132.74 27.2704 132.164 26.9986C131.594 26.7268 131.126 26.3855 130.762 25.9745C130.397 25.5569 130.119 25.1359 129.926 24.7117H129.797V32.885H125.561ZM129.708 19.5214C129.708 20.4295 129.834 21.2216 130.086 21.8978C130.337 22.5739 130.702 23.1009 131.179 23.4787C131.657 23.8499 132.237 24.0356 132.919 24.0356C133.609 24.0356 134.192 23.8466 134.669 23.4688C135.147 23.0843 135.508 22.554 135.753 21.8779C136.005 21.1951 136.131 20.4096 136.131 19.5214C136.131 18.6397 136.008 17.8642 135.763 17.1946C135.518 16.5251 135.157 16.0015 134.679 15.6236C134.202 15.2458 133.615 15.0569 132.919 15.0569C132.23 15.0569 131.647 15.2392 131.169 15.6037C130.699 15.9683 130.337 16.4854 130.086 17.1549C129.834 17.8244 129.708 18.6132 129.708 19.5214ZM147.635 27.4461C146.661 27.4461 145.792 27.277 145.03 26.939C144.268 26.5943 143.665 26.0872 143.221 25.4177C142.783 24.7415 142.564 23.8997 142.564 22.8921C142.564 22.0436 142.72 21.331 143.032 20.7543C143.343 20.1776 143.767 19.7136 144.304 19.3623C144.841 19.0109 145.451 18.7458 146.134 18.5668C146.823 18.3878 147.546 18.2619 148.301 18.189C149.19 18.0962 149.906 18.01 150.449 17.9304C150.993 17.8443 151.387 17.7183 151.632 17.5526C151.878 17.3869 152 17.1416 152 16.8168V16.7571C152 16.1274 151.801 15.6402 151.404 15.2955C151.013 14.9508 150.456 14.7785 149.733 14.7785C148.971 14.7785 148.364 14.9475 147.914 15.2856C147.463 15.617 147.165 16.0346 147.019 16.5384L143.101 16.2202C143.3 15.2922 143.691 14.4901 144.275 13.814C144.858 13.1312 145.61 12.6075 146.532 12.2429C147.46 11.8717 148.533 11.6861 149.753 11.6861C150.602 11.6861 151.414 11.7856 152.189 11.9844C152.971 12.1833 153.664 12.4915 154.267 12.9091C154.877 13.3267 155.358 13.8637 155.709 14.5199C156.06 15.1696 156.236 15.9484 156.236 16.8566V27.1577H152.219V25.0398H152.1C151.855 25.5171 151.526 25.938 151.115 26.3026C150.704 26.6606 150.211 26.9423 149.634 27.1478C149.057 27.3466 148.391 27.4461 147.635 27.4461ZM148.848 24.5228C149.471 24.5228 150.022 24.4001 150.499 24.1549C150.976 23.903 151.351 23.5649 151.623 23.1407C151.894 22.7164 152.03 22.2358 152.03 21.6989V20.0782C151.898 20.1643 151.715 20.2439 151.483 20.3168C151.258 20.3831 151.003 20.4461 150.718 20.5057C150.433 20.5588 150.148 20.6085 149.863 20.6549C149.578 20.6946 149.319 20.7311 149.087 20.7642C148.59 20.8372 148.156 20.9532 147.784 21.1123C147.413 21.2714 147.125 21.4868 146.919 21.7586C146.714 22.0237 146.611 22.3552 146.611 22.7529C146.611 23.3296 146.82 23.7704 147.238 24.0753C147.662 24.3736 148.199 24.5228 148.848 24.5228ZM166.423 27.456C164.859 27.456 163.513 27.1246 162.386 26.4617C161.266 25.7922 160.404 24.8642 159.801 23.6776C159.204 22.491 158.906 21.1255 158.906 19.581C158.906 18.0166 159.208 16.6445 159.811 15.4645C160.421 14.278 161.286 13.3533 162.406 12.6904C163.526 12.0209 164.859 11.6861 166.403 11.6861C167.735 11.6861 168.902 11.9281 169.903 12.412C170.904 12.8959 171.696 13.5753 172.279 14.4503C172.863 15.3253 173.184 16.3528 173.244 17.5327H169.247C169.134 16.7704 168.836 16.1572 168.352 15.6932C167.875 15.2226 167.248 14.9873 166.473 14.9873C165.816 14.9873 165.243 15.1662 164.752 15.5242C164.269 15.8755 163.891 16.3892 163.619 17.0654C163.347 17.7415 163.211 18.5602 163.211 19.5214C163.211 20.4958 163.344 21.3244 163.609 22.0071C163.881 22.6899 164.262 23.2103 164.752 23.5682C165.243 23.9262 165.816 24.1052 166.473 24.1052C166.957 24.1052 167.391 24.0057 167.775 23.8069C168.166 23.608 168.488 23.3196 168.74 22.9418C168.998 22.5573 169.167 22.0966 169.247 21.5597H173.244C173.178 22.7264 172.859 23.7538 172.289 24.6421C171.726 25.5237 170.947 26.2131 169.953 26.7103C168.958 27.2074 167.782 27.456 166.423 27.456ZM182.916 27.456C181.345 27.456 179.993 27.1378 178.859 26.5015C177.732 25.8585 176.864 24.9503 176.254 23.777C175.644 22.5971 175.339 21.2017 175.339 19.591C175.339 18.0199 175.644 16.6411 176.254 15.4546C176.864 14.268 177.723 13.3433 178.83 12.6804C179.943 12.0176 181.249 11.6861 182.747 11.6861C183.755 11.6861 184.693 11.8485 185.561 12.1733C186.436 12.4915 187.198 12.9721 187.848 13.6151C188.504 14.2581 189.015 15.0668 189.379 16.0412C189.744 17.009 189.926 18.1426 189.926 19.4418V20.6052H177.03V17.9802H185.939C185.939 17.3703 185.806 16.8301 185.541 16.3594C185.276 15.8888 184.908 15.5209 184.438 15.2557C183.973 14.9839 183.433 14.8481 182.817 14.8481C182.174 14.8481 181.604 14.9972 181.107 15.2955C180.616 15.5872 180.232 15.9816 179.953 16.4787C179.675 16.9693 179.532 17.5161 179.526 18.1194V20.6151C179.526 21.3708 179.665 22.0237 179.943 22.5739C180.228 23.1241 180.629 23.5483 181.146 23.8466C181.663 24.1449 182.277 24.2941 182.986 24.2941C183.456 24.2941 183.887 24.2278 184.278 24.0952C184.67 23.9626 185.004 23.7638 185.283 23.4986C185.561 23.2335 185.773 22.9087 185.919 22.5242L189.837 22.7827C189.638 23.724 189.23 24.546 188.614 25.2486C188.004 25.9446 187.215 26.4882 186.247 26.8793C185.286 27.2638 184.176 27.456 182.916 27.456Z" fill="white"/>
<defs>
<clipPath id="clip0_5_48191">
<rect width="37" height="29" fill="white" transform="translate(0.5 2.65771)"/>
</clipPath>
</defs>
</svg>
