<svg width="214" height="46" viewBox="0 0 214 46" fill="none" xmlns="http://www.w3.org/2000/svg">
<g clip-path="url(#clip0_5_47750)">
<path d="M213.499 20.8105V17.0231H208.848V11.1352L208.691 11.184L204.322 12.5356L204.236 12.5621V17.0234H197.34V14.538C197.34 13.3808 197.596 12.4952 198.1 11.9046C198.601 11.3211 199.317 11.0244 200.231 11.0244C200.888 11.0244 201.568 11.1809 202.253 11.4894L202.424 11.5669V7.57829L202.343 7.54829C201.705 7.31621 200.836 7.19934 199.76 7.19934C198.403 7.19934 197.17 7.49787 196.095 8.08952C195.019 8.68199 194.173 9.5278 193.58 10.6032C192.99 11.6773 192.69 12.9179 192.69 14.2907V17.0231H189.451V20.8105H192.69V36.766H197.34V20.8105H204.236V30.9499C204.236 35.1258 206.184 37.242 210.026 37.242C210.657 37.242 211.322 37.1672 212 37.0207C212.691 36.8703 213.162 36.7201 213.438 36.5597L213.5 36.523V32.7007L213.31 32.8271C213.058 32.9971 212.744 33.1361 212.375 33.2394C212.005 33.3446 211.696 33.3973 211.457 33.3973C210.557 33.3973 209.891 33.1521 209.478 32.6682C209.06 32.1799 208.848 31.3259 208.848 30.1314V20.8105H213.499ZM179.067 33.398C177.379 33.398 176.048 32.8321 175.111 31.7176C174.167 30.5974 173.689 29.0004 173.689 26.9713C173.689 24.8779 174.167 23.2394 175.111 22.0994C176.049 20.967 177.367 20.3922 179.029 20.3922C180.641 20.3922 181.925 20.9411 182.844 22.0246C183.768 23.1138 184.237 24.7391 184.237 26.8569C184.237 29.0008 183.796 30.6476 182.926 31.7493C182.063 32.8426 180.764 33.398 179.067 33.398ZM179.273 16.5475C176.054 16.5475 173.496 17.5015 171.673 19.3828C169.85 21.2644 168.926 23.8683 168.926 27.1228C168.926 30.2139 169.828 32.7003 171.607 34.5117C173.386 36.3237 175.807 37.2416 178.803 37.2416C181.924 37.2416 184.43 36.2743 186.253 34.3669C188.076 32.4615 188.999 29.8822 188.999 26.7038C188.999 23.5644 188.132 21.0595 186.423 19.2601C184.712 17.46 182.307 16.5475 179.273 16.5475ZM161.429 16.5475C159.239 16.5475 157.427 17.114 156.043 18.2308C154.651 19.3543 153.945 20.8278 153.945 22.6109C153.945 23.5377 154.097 24.361 154.397 25.0593C154.699 25.7599 155.166 26.3768 155.787 26.8944C156.402 27.408 157.353 27.9459 158.613 28.4931C159.672 28.9337 160.462 29.3064 160.963 29.6002C161.454 29.8881 161.802 30.1774 161.998 30.4593C162.189 30.7351 162.286 31.1126 162.286 31.5784C162.286 32.9048 161.304 33.5502 159.282 33.5502C158.533 33.5502 157.677 33.3919 156.74 33.0798C155.81 32.7725 154.932 32.3224 154.137 31.7453L153.944 31.6053V36.1316L154.015 36.1649C154.673 36.472 155.502 36.731 156.48 36.9347C157.456 37.1386 158.343 37.2424 159.113 37.2424C161.49 37.2424 163.404 36.6733 164.8 35.5497C166.206 34.4185 166.918 32.9103 166.918 31.0655C166.918 29.7348 166.534 28.5935 165.779 27.6732C165.028 26.7603 163.725 25.9222 161.908 25.1814C160.46 24.5939 159.533 24.1062 159.15 23.7319C158.781 23.3702 158.594 22.8588 158.594 22.2111C158.594 21.6369 158.825 21.1769 159.3 20.8045C159.778 20.4301 160.444 20.2397 161.279 20.2397C162.053 20.2397 162.846 20.3634 163.634 20.6059C164.422 20.8484 165.114 21.1732 165.692 21.5705L165.882 21.7017V17.4081L165.809 17.3765C165.276 17.1454 164.573 16.9477 163.72 16.7873C162.87 16.6279 162.1 16.5475 161.429 16.5475ZM141.823 33.398C140.135 33.398 138.804 32.8321 137.867 31.7176C136.923 30.5974 136.446 29.0008 136.446 26.9713C136.446 24.8779 136.924 23.2394 137.868 22.0994C138.805 20.967 140.123 20.3922 141.785 20.3922C143.397 20.3922 144.68 20.9411 145.6 22.0246C146.524 23.1138 146.993 24.7391 146.993 26.8569C146.993 29.0008 146.552 30.6476 145.682 31.7493C144.819 32.8426 143.521 33.398 141.823 33.398ZM142.03 16.5475C138.809 16.5475 136.251 17.5015 134.429 19.3828C132.607 21.2644 131.682 23.8683 131.682 27.1228C131.682 30.2152 132.585 32.7003 134.364 34.5117C136.143 36.3237 138.564 37.2416 141.559 37.2416C144.68 37.2416 147.187 36.2743 149.009 34.3669C150.832 32.4615 151.755 29.8822 151.755 26.7038C151.755 23.5644 150.889 21.0595 149.179 19.2601C147.468 17.46 145.062 16.5475 142.03 16.5475ZM124.624 20.4422V17.0231H120.031V36.7655H124.624V26.6665C124.624 24.9493 125.009 23.5385 125.769 22.4729C126.519 21.4201 127.519 20.8865 128.739 20.8865C129.153 20.8865 129.618 20.9555 130.121 21.092C130.618 21.2276 130.979 21.3749 131.192 21.5299L131.385 21.6713V16.9894L131.31 16.9571C130.883 16.7734 130.277 16.6807 129.512 16.6807C128.357 16.6807 127.325 17.0556 126.44 17.7939C125.663 18.4429 125.102 19.3326 124.673 20.4422H124.624ZM111.805 16.5475C109.698 16.5475 107.818 17.0044 106.22 17.905C104.618 18.8077 103.379 20.0964 102.536 21.7351C101.696 23.3698 101.27 25.2793 101.27 27.4088C101.27 29.2741 101.683 30.986 102.5 32.4947C103.317 34.0058 104.473 35.1881 105.937 36.0081C107.399 36.827 109.088 37.2422 110.959 37.2422C113.141 37.2422 115.005 36.801 116.499 35.9308L116.56 35.8958V31.6411L116.367 31.7836C115.69 32.2822 114.933 32.6801 114.12 32.9667C113.308 33.2532 112.568 33.398 111.919 33.398C110.116 33.398 108.669 32.8278 107.619 31.7036C106.567 30.5781 106.033 28.9975 106.033 27.0086C106.033 25.0072 106.59 23.386 107.686 22.1898C108.78 20.9972 110.229 20.3922 111.994 20.3922C113.504 20.3922 114.975 20.909 116.367 21.9298L116.56 22.0713V17.5883L116.498 17.5529C115.974 17.2565 115.259 17.0117 114.373 16.8261C113.489 16.6409 112.626 16.5475 111.805 16.5475ZM98.1069 17.0234H93.5137V36.7655H98.1069V17.0234ZM95.8573 8.61304C95.1013 8.61304 94.4419 8.87324 93.9002 9.38884C93.3563 9.90591 93.0804 10.5569 93.0804 11.3252C93.0804 12.0815 93.353 12.7206 93.8918 13.2239C94.4271 13.7258 95.0885 13.9801 95.8575 13.9801C96.6262 13.9801 97.2901 13.7258 97.8318 13.2247C98.377 12.7206 98.6535 12.0817 98.6535 11.3252C98.6535 10.5838 98.3844 9.93945 97.8543 9.40968C97.3245 8.88095 96.6524 8.61304 95.8573 8.61304ZM84.3969 15.5667V36.7655H89.0845V9.21739H82.5967L74.3503 29.6793L66.3477 9.21739H59.5957V36.7653H64.0008V15.5647H64.152L72.6026 36.7655H75.927L84.2457 15.5667H84.3969Z" fill="#706D6E"/>
<path d="M22.1077 21.8591H0.5V0.0124512H22.1077V21.8591Z" fill="#F1511B"/>
<path d="M45.9647 21.8585H24.3574V0.0118408H45.9647V21.8585Z" fill="#80CC28"/>
<path d="M22.1071 45.9883H0.5V24.1418H22.1071V45.9883Z" fill="#00ADEF"/>
<path d="M45.9647 45.9882H24.3574V24.1417H45.9647V45.9882Z" fill="#FBBC09"/>
</g>
<defs>
<clipPath id="clip0_5_47750">
<rect width="213" height="46" fill="white" transform="translate(0.5 0.00012207)"/>
</clipPath>
</defs>
</svg>
