<svg width="192" height="49" viewBox="0 0 192 49" fill="none" xmlns="http://www.w3.org/2000/svg">
<g clip-path="url(#clip0_5_47757)">
<path d="M61.4961 38.3897L63.8865 32.8338C66.4696 34.7629 69.9009 35.7661 73.2937 35.7661C75.7997 35.7661 77.3804 34.8015 77.3804 33.3353C77.3419 29.2456 62.3828 32.4479 62.2672 22.1849C62.2286 16.9763 66.8551 12.9637 73.4093 12.9637C77.3033 12.9637 81.1973 13.9283 83.9732 16.1275L81.7371 21.7991C79.1925 20.1786 76.031 19.0212 73.0238 19.0212C70.9804 19.0212 69.631 19.9857 69.631 21.2204C69.6696 25.233 84.7443 23.0338 84.8985 32.8338C84.8985 38.1582 80.3877 41.9007 73.9106 41.9007C69.1684 41.9007 64.8118 40.7818 61.4961 38.3897ZM153.217 30.8275C152.021 32.9109 149.785 34.3385 147.202 34.3385C143.385 34.3385 140.301 31.2519 140.301 27.4322C140.301 23.6125 143.385 20.5259 147.202 20.5259C149.785 20.5259 152.021 21.9535 153.217 24.0369L159.809 20.3716C157.342 15.9731 152.6 12.9637 147.202 12.9637C139.221 12.9637 132.744 19.4456 132.744 27.4322C132.744 35.4188 139.221 41.9007 147.202 41.9007C152.638 41.9007 157.342 38.9298 159.809 34.4928L153.217 30.8275ZM88.2142 0.964478H96.4648V41.3605H88.2142V0.964478ZM163.048 0.964478V41.3605H171.299V29.2456L181.091 41.3605H191.655L179.202 26.9692L190.73 13.5424H180.629L171.299 24.6928V0.964478H163.048ZM120.985 30.9046C119.79 32.8724 117.323 34.3385 114.547 34.3385C110.73 34.3385 107.645 31.2519 107.645 27.4322C107.645 23.6125 110.73 20.5259 114.547 20.5259C117.323 20.5259 119.79 22.0692 120.985 24.0755V30.9046ZM120.985 13.5424V16.822C119.636 14.5456 116.282 12.9637 112.773 12.9637C105.525 12.9637 99.819 19.3684 99.819 27.3936C99.819 35.4188 105.525 41.9007 112.773 41.9007C116.282 41.9007 119.636 40.3188 120.985 38.0424V41.322H129.236V13.5424H120.985Z" fill="black"/>
<path d="M10.4889 30.8661C10.4889 33.6826 8.21416 35.959 5.3997 35.959C2.58525 35.959 0.310547 33.6826 0.310547 30.8661C0.310547 28.0496 2.58525 25.7732 5.3997 25.7732H10.4889V30.8661ZM13.0334 30.8661C13.0334 28.0496 15.3081 25.7732 18.1226 25.7732C20.9371 25.7732 23.2118 28.0496 23.2118 30.8661V43.5984C23.2118 46.4149 20.9371 48.6913 18.1226 48.6913C15.3081 48.6913 13.0334 46.4149 13.0334 43.5984V30.8661Z" fill="#E01E5A"/>
<path d="M18.1221 10.4174C15.3076 10.4174 13.0329 8.14102 13.0329 5.32448C13.0329 2.50795 15.3076 0.231567 18.1221 0.231567C20.9365 0.231567 23.2112 2.50795 23.2112 5.32448V10.4174H18.1221ZM18.1221 13.0024C20.9365 13.0024 23.2112 15.2788 23.2112 18.0953C23.2112 20.9119 20.9365 23.1883 18.1221 23.1883H5.36064C2.54618 23.1883 0.271484 20.9119 0.271484 18.0953C0.271484 15.2788 2.54618 13.0024 5.36064 13.0024H18.1221Z" fill="#36C5F0"/>
<path d="M38.5178 18.0953C38.5178 15.2788 40.7925 13.0024 43.607 13.0024C46.4214 13.0024 48.6961 15.2788 48.6961 18.0953C48.6961 20.9119 46.4214 23.1883 43.607 23.1883H38.5178V18.0953ZM35.9732 18.0953C35.9732 20.9119 33.6985 23.1883 30.8841 23.1883C28.0696 23.1883 25.7949 20.9119 25.7949 18.0953V5.32448C25.7949 2.50795 28.0696 0.231567 30.8841 0.231567C33.6985 0.231567 35.9732 2.50795 35.9732 5.32448V18.0953Z" fill="#2EB67D"/>
<path d="M30.8841 38.5054C33.6985 38.5054 35.9732 40.7817 35.9732 43.5983C35.9732 46.4148 33.6985 48.6912 30.8841 48.6912C28.0696 48.6912 25.7949 46.4148 25.7949 43.5983V38.5054H30.8841ZM30.8841 35.9589C28.0696 35.9589 25.7949 33.6825 25.7949 30.866C25.7949 28.0494 28.0696 25.7731 30.8841 25.7731H43.6455C46.46 25.7731 48.7347 28.0494 48.7347 30.866C48.7347 33.6825 46.46 35.9589 43.6455 35.9589H30.8841Z" fill="#ECB22E"/>
</g>
<defs>
<clipPath id="clip0_5_47757">
<rect width="192" height="49" fill="white"/>
</clipPath>
</defs>
</svg>
